<svg width="51" height="51" viewBox="0 0 51 51" fill="none" xmlns="http://www.w3.org/2000/svg">
<path d="M19.1568 4.59155C21.6705 -0.794613 29.3295 -0.794613 31.8432 4.59155L35.4014 12.2158C36.0968 13.7056 37.2944 14.9032 38.7842 15.5986L46.4085 19.1568C51.7946 21.6705 51.7946 29.3295 46.4085 31.8432L38.7842 35.4014C37.2943 36.0968 36.0968 37.2944 35.4014 38.7842L31.8432 46.4085C29.3295 51.7946 21.6705 51.7946 19.1568 46.4085L15.5986 38.7842C14.9032 37.2943 13.7056 36.0968 12.2158 35.4014L4.59155 31.8432C-0.794613 29.3295 -0.794613 21.6705 4.59155 19.1568L12.2158 15.5986C13.7056 14.9032 14.9032 13.7056 15.5986 12.2158L19.1568 4.59155Z" fill="#D9D9D9"/>
</svg>
