<svg xmlns="http://www.w3.org/2000/svg" width="256" height="256"><path fill="#1976D2" fill-opacity=".016" fill-rule="evenodd" d="M0 128.004v128.004l128.25-.254 128.25-.254.254-127.75L257.008 0H0zm.485.496c0 70.4.119 99.053.265 63.672.146-35.38.146-92.98 0-128C.604 29.153.485 58.1.485 128.5"/><path fill="#1976D2" fill-opacity=".063" fill-rule="evenodd" d="M20.457 1.253c-.294.766-.389 38.035-.211 82.82l.325 81.427 2.733 9.393c11.212 38.525 40.587 67.73 78.219 77.768 8.889 2.371 11.777 2.662 26.477 2.662 14.58 0 17.625-.301 26.17-2.584 20.033-5.352 34.231-13.33 49.001-27.533 12.792-12.302 21.177-25.23 27.147-41.856 4.368-12.167 5.682-21.842 5.682-41.853 0-15.749-.219-18.367-1.582-18.89-.87-.334-24.956-.607-53.525-.607H128.95l-.975 2.565c-1.266 3.329-1.272 42.525-.007 45.851l.968 2.547 23.174.268c27.882.324 27.881.323 20.802 9.459-14.225 18.356-40.406 26.316-62.24 18.923-17.749-6.011-30.009-18.02-36.477-35.732L71.5 158.5l-.299-52.587c-.268-47.213-.135-52.723 1.301-53.915 1.335-1.108 2.874-1.055 9.299.321 24.053 5.15 41.81 24.007 45.072 47.863.559 4.082 1.453 6.583 2.674 7.476 1.402 1.025 6.962 1.342 23.533 1.342 27.848 0 26.859.537 25.01-13.6-3.431-26.224-14.381-47.933-33.218-65.859C131.264 16.591 116.446 8.255 97.5 2.889 90.045.778 87.165.597 55.246.241 26.632-.077 20.903.089 20.457 1.253"/><path fill="#1976D2" fill-opacity=".302" fill-rule="evenodd" d="M21.25 1.129c-1.96 1.993-1.775 148.839.205 161.871 6.59 43.396 38.572 78.636 81.167 89.436 10.65 2.701 24.762 3.695 36.089 2.543 45.173-4.595 82.291-36.453 93.957-80.642 2.247-8.512 2.662-12.498 3.081-29.594.364-14.845.177-20.128-.755-21.25-1.069-1.289-8.304-1.493-52.916-1.493-38.861 0-51.976.298-52.878 1.2-1.703 1.703-1.703 46.897 0 48.6.863.863 7.607 1.2 24.031 1.2 20.185 0 22.904.189 23.457 1.631 1.71 4.453-11.28 18.155-22.488 23.722-9.988 4.96-15.37 6.159-27.2 6.056-8.646-.075-11.69-.538-17.242-2.623-19.254-7.231-32.393-21.49-37.242-40.418-1.3-5.074-1.495-13.913-1.275-57.928L71.5 51.5l3.233-.312c1.779-.172 6.054.398 9.5 1.267 10.46 2.635 18.414 7.158 26.394 15.01 8.993 8.848 14.602 19.658 16.623 32.035l1.307 8 23.971.269c19.978.224 24.148.028 25.029-1.178 1.43-1.956.038-15.808-2.623-26.088-4.684-18.097-14.73-35.431-28.414-49.029C132.878 17.918 116.159 8.35 97.206 3.252 87.873.741 86.25.626 55 .25c-25.375-.305-32.774-.113-33.75.879"/><path fill="#1976D2" fill-opacity=".141" fill-rule="evenodd" d="M21.559 1.584c-1.418 1.418-1.572 9.228-1.47 74.75.062 40.241.522 77.069 1.022 81.839 1.642 15.662 8.205 34.047 17.128 47.981 12.871 20.097 34.973 36.841 58.285 44.153 30.795 9.661 66.073 4.226 92.887-14.311 8.643-5.974 22.412-19.921 27.938-28.298 9.351-14.177 15.712-31.716 17.66-48.698 1.081-9.425 1.332-31.947.384-34.418C234.85 123.167 229.211 123 182 123s-52.85.167-53.393 1.582c-.334.87-.607 11.413-.607 23.428 0 18.528.239 22.086 1.571 23.419 1.335 1.335 4.941 1.571 23.965 1.571 20.67 0 22.469.141 23.372 1.829 1.335 2.494-1.577 7.109-9.001 14.261-27.711 26.697-73.953 18.79-91.179-15.59-6.202-12.378-6.108-11.414-6.493-66.947-.194-28.02-.105-51.933.197-53.139.799-3.181 2.747-3.537 10.851-1.987 23.382 4.474 42.52 23.778 45.909 46.308.559 3.721 1.356 7.44 1.771 8.265.63 1.255 4.471 1.544 23.52 1.769 17.03.201 23.144-.045 24.266-.976 3.265-2.709-.827-25.707-7.307-41.071-4.908-11.638-11.664-21.801-21.04-31.654-17.878-18.787-40.08-29.837-66.376-33.037C77.366.464 62.21 0 48.348 0 26.684 0 22.92.223 21.559 1.584"/></svg>